<?xml version="1.0" encoding="UTF-8"?>
<!DOCTYPE svg PUBLIC "-//W3C//DTD SVG 1.1//EN" "http://www.w3.org/Graphics/SVG/1.1/DTD/svg11.dtd">
<svg xmlns="http://www.w3.org/2000/svg" version="1.1" width="64px" height="64px" style="shape-rendering:geometricPrecision; text-rendering:geometricPrecision; image-rendering:optimizeQuality; fill-rule:evenodd; clip-rule:evenodd" xmlns:xlink="http://www.w3.org/1999/xlink">
<g><path style="opacity:0.761" fill="#493f70" d="M 35.5,5.5 C 35.5,6.16667 35.5,6.83333 35.5,7.5C 34.0681,5.67292 32.4014,4.00625 30.5,2.5C 28.7118,3.28255 27.7118,4.61589 27.5,6.5C 26.0937,6.97306 25.427,7.97306 25.5,9.5C 24.6618,9.84171 24.3284,10.5084 24.5,11.5C 23.0937,11.9731 22.427,12.9731 22.5,14.5C 21.6618,14.8417 21.3284,15.5084 21.5,16.5C 20.596,17.209 20.2627,18.209 20.5,19.5C 19.209,19.2627 18.209,19.596 17.5,20.5C 16.1667,21.1667 16.1667,21.8333 17.5,22.5C 17.8417,23.3382 18.5084,23.6716 19.5,23.5C 19.5,23.8333 19.5,24.1667 19.5,24.5C 19.5,26.5 19.5,28.5 19.5,30.5C 19.1667,30.5 18.8333,30.5 18.5,30.5C 17.2151,27.7877 17.0484,30.4543 18,38.5C 19.0391,39.7101 20.2058,40.7101 21.5,41.5C 21.5,41.8333 21.5,42.1667 21.5,42.5C 20.3569,42.9081 19.3569,43.5748 18.5,44.5C 19.6302,45.6223 20.2969,46.9557 20.5,48.5C 19.0638,46.6815 17.3971,46.3482 15.5,47.5C 13.7758,50.95 13.1091,54.6166 13.5,58.5C 15.8333,58.5 18.1667,58.5 20.5,58.5C 21.404,57.791 21.7373,56.791 21.5,55.5C 23.8333,55.5 26.1667,55.5 28.5,55.5C 27.0947,57.4526 27.7614,58.4526 30.5,58.5C 33.2386,58.4526 33.9053,57.4526 32.5,55.5C 35.0593,55.1984 37.3926,55.5318 39.5,56.5C 32.8333,57.1667 32.8333,57.8333 39.5,58.5C 39.8333,58.5 40.1667,58.5 40.5,58.5C 42.8333,58.5 45.1667,58.5 47.5,58.5C 47.5405,55.1194 47.2071,51.7861 46.5,48.5C 47.2216,48.9175 47.7216,49.5842 48,50.5C 48.498,53.4816 48.6646,56.4816 48.5,59.5C 36.8333,59.5 25.1667,59.5 13.5,59.5C 12.0532,58.8658 11.3866,57.6991 11.5,56C 11.7481,50.2354 14.0815,45.5687 18.5,42C 14.8612,36.521 14.1945,30.8544 16.5,25C 13.3333,21.1667 14.1667,18.6667 19,17.5C 21.5694,11.775 24.736,6.44167 28.5,1.5C 31.9522,0.579706 34.2856,1.91304 35.5,5.5 Z"/></g>
<g><path style="opacity:1" fill="#2588e8" d="M 35.5,7.5 C 37.9216,10.416 39.5883,13.7493 40.5,17.5C 34.3554,18.4902 28.0221,18.8235 21.5,18.5C 21.5,17.8333 21.5,17.1667 21.5,16.5C 21.3284,15.5084 21.6618,14.8417 22.5,14.5C 23.9063,14.0269 24.573,13.0269 24.5,11.5C 24.3284,10.5084 24.6618,9.84171 25.5,9.5C 26.9063,9.02694 27.573,8.02694 27.5,6.5C 27.7118,4.61589 28.7118,3.28255 30.5,2.5C 32.4014,4.00625 34.0681,5.67292 35.5,7.5 Z"/></g>
<g><path style="opacity:1" fill="#a6c6e9" d="M 27.5,6.5 C 27.573,8.02694 26.9063,9.02694 25.5,9.5C 25.427,7.97306 26.0937,6.97306 27.5,6.5 Z"/></g>
<g><path style="opacity:1" fill="#9fc2e8" d="M 24.5,11.5 C 24.573,13.0269 23.9063,14.0269 22.5,14.5C 22.427,12.9731 23.0937,11.9731 24.5,11.5 Z"/></g>
<g><path style="opacity:0.435" fill="#d8d9df" d="M 35.5,5.5 C 38.9157,9.32327 41.5824,13.6566 43.5,18.5C 42.8333,18.5 42.1667,18.5 41.5,18.5C 41.5,17.8333 41.1667,17.5 40.5,17.5C 39.5883,13.7493 37.9216,10.416 35.5,7.5C 35.5,6.83333 35.5,6.16667 35.5,5.5 Z"/></g>
<g><path style="opacity:1" fill="#22549f" d="M 40.5,17.5 C 41.1667,17.5 41.5,17.8333 41.5,18.5C 34.8333,19.8333 28.1667,19.8333 21.5,18.5C 28.0221,18.8235 34.3554,18.4902 40.5,17.5 Z"/></g>
<g><path style="opacity:1" fill="#5e82b1" d="M 21.5,16.5 C 21.5,17.1667 21.5,17.8333 21.5,18.5C 28.1667,19.8333 34.8333,19.8333 41.5,18.5C 42.1667,18.5 42.8333,18.5 43.5,18.5C 43.5,19.1667 43.5,19.8333 43.5,20.5C 34.8333,20.5 26.1667,20.5 17.5,20.5C 18.209,19.596 19.209,19.2627 20.5,19.5C 20.2627,18.209 20.596,17.209 21.5,16.5 Z"/></g>
<g><path style="opacity:1" fill="#6cc8f6" d="M 17.5,20.5 C 26.1667,20.5 34.8333,20.5 43.5,20.5C 44.0431,20.56 44.3764,20.8933 44.5,21.5C 35.5246,22.4982 26.5246,22.8315 17.5,22.5C 16.1667,21.8333 16.1667,21.1667 17.5,20.5 Z"/></g>
<g><path style="opacity:1" fill="#4d5d8d" d="M 43.5,18.5 C 45.0269,18.427 46.0269,19.0937 46.5,20.5C 44.3298,22.6916 42.9965,25.3583 42.5,28.5C 42.7678,30.099 42.4345,31.4324 41.5,32.5C 41.5,29.8333 41.5,27.1667 41.5,24.5C 34.3524,23.5084 27.0191,23.175 19.5,23.5C 18.5084,23.6716 17.8417,23.3382 17.5,22.5C 26.5246,22.8315 35.5246,22.4982 44.5,21.5C 44.3764,20.8933 44.0431,20.56 43.5,20.5C 43.5,19.8333 43.5,19.1667 43.5,18.5 Z"/></g>
<g><path style="opacity:0.846" fill="#d3d4db" d="M 46.5,20.5 C 47.6946,20.8656 48.3613,21.699 48.5,23C 47.5862,24.4064 46.9195,25.9064 46.5,27.5C 45.5041,27.5858 44.6708,27.2524 44,26.5C 43.5357,27.0944 43.369,27.7611 43.5,28.5C 43.1667,28.5 42.8333,28.5 42.5,28.5C 42.9965,25.3583 44.3298,22.6916 46.5,20.5 Z"/></g>
<g><path style="opacity:1" fill="#a59fb6" d="M 19.5,24.5 C 19.5,24.1667 19.5,23.8333 19.5,23.5C 27.0191,23.175 34.3524,23.5084 41.5,24.5C 35.8104,23.9925 30.3104,24.6591 25,26.5C 23.2382,26.0556 23.4049,25.5556 25.5,25C 23.5273,24.5045 21.5273,24.3379 19.5,24.5 Z"/></g>
<g><path style="opacity:1" fill="#f3f2f5" d="M 19.5,24.5 C 21.5273,24.3379 23.5273,24.5045 25.5,25C 23.4049,25.5556 23.2382,26.0556 25,26.5C 30.3104,24.6591 35.8104,23.9925 41.5,24.5C 41.5,27.1667 41.5,29.8333 41.5,32.5C 40.3556,34.1002 39.1889,35.7669 38,37.5C 36.2591,36.2423 34.4258,35.2423 32.5,34.5C 32.6495,33.448 32.4828,32.448 32,31.5C 31,32.8333 30,32.8333 29,31.5C 28.5172,32.448 28.3505,33.448 28.5,34.5C 26.5742,35.2423 24.7409,36.2423 23,37.5C 21.295,35.4234 20.1283,33.09 19.5,30.5C 19.5,28.5 19.5,26.5 19.5,24.5 Z"/></g>
<g><path style="opacity:1" fill="#635781" d="M 24.5,27.5 C 26.337,27.6395 26.6704,28.3061 25.5,29.5C 24.7025,29.0431 24.3691,28.3764 24.5,27.5 Z"/></g>
<g><path style="opacity:1" fill="#665a83" d="M 34.5,27.5 C 36.337,27.6395 36.6704,28.3061 35.5,29.5C 34.7025,29.0431 34.3691,28.3764 34.5,27.5 Z"/></g>
<g><path style="opacity:0.872" fill="#dcdce0" d="M 46.5,28.5 C 47.9468,29.1342 48.6134,30.3009 48.5,32C 47.993,36.234 46.6596,40.0674 44.5,43.5C 43.8333,43.5 43.1667,43.5 42.5,43.5C 42.3893,42.8826 42.056,42.3826 41.5,42C 43.7712,39.0556 45.1045,35.7223 45.5,32C 44.4829,30.9505 44.3162,29.7839 45,28.5C 45.7792,31.0972 46.2792,31.0972 46.5,28.5 Z"/></g>
<g><path style="opacity:1" fill="#c6e0ea" d="M 18.5,30.5 C 18.8711,34.2441 20.5377,37.2441 23.5,39.5C 28.1667,38.1667 32.8333,38.1667 37.5,39.5C 40.1247,37.9186 41.458,35.5852 41.5,32.5C 42.4345,31.4324 42.7678,30.099 42.5,28.5C 42.8333,28.5 43.1667,28.5 43.5,28.5C 43.6646,31.5184 43.498,34.5184 43,37.5C 42.5348,38.9308 41.7014,40.0975 40.5,41C 36.8782,41.9023 33.5449,43.4023 30.5,45.5C 27.817,43.4153 24.817,42.0819 21.5,41.5C 20.2058,40.7101 19.0391,39.7101 18,38.5C 17.0484,30.4543 17.2151,27.7877 18.5,30.5 Z"/></g>
<g><path style="opacity:1" fill="#6c678d" d="M 18.5,30.5 C 18.8333,30.5 19.1667,30.5 19.5,30.5C 20.1283,33.09 21.295,35.4234 23,37.5C 24.7409,36.2423 26.5742,35.2423 28.5,34.5C 29.8333,34.5 31.1667,34.5 32.5,34.5C 34.4258,35.2423 36.2591,36.2423 38,37.5C 39.1889,35.7669 40.3556,34.1002 41.5,32.5C 41.458,35.5852 40.1247,37.9186 37.5,39.5C 32.8333,38.1667 28.1667,38.1667 23.5,39.5C 20.5377,37.2441 18.8711,34.2441 18.5,30.5 Z"/></g>
<g><path style="opacity:1" fill="#a39cb5" d="M 32.5,34.5 C 31.1667,34.5 29.8333,34.5 28.5,34.5C 28.3505,33.448 28.5172,32.448 29,31.5C 30,32.8333 31,32.8333 32,31.5C 32.4828,32.448 32.6495,33.448 32.5,34.5 Z"/></g>
<g><path style="opacity:1" fill="#6bc5f3" d="M 21.5,42.5 C 24.8855,43.5277 27.5522,45.5277 29.5,48.5C 30.1667,53.8333 30.8333,53.8333 31.5,48.5C 32.9335,47.1667 34.2668,45.6667 35.5,44C 37.9501,42.9397 40.2834,42.773 42.5,43.5C 41.8333,45.1667 41.1667,46.8333 40.5,48.5C 38.9261,50.1016 38.2594,52.1016 38.5,54.5C 33.1667,54.5 27.8333,54.5 22.5,54.5C 22.7406,52.1016 22.0739,50.1016 20.5,48.5C 20.2969,46.9557 19.6302,45.6223 18.5,44.5C 19.3569,43.5748 20.3569,42.9081 21.5,42.5 Z"/></g>
<g><path style="opacity:1" fill="#6bc5f3" d="M 20.5,48.5 C 20.5,51.8333 20.5,55.1667 20.5,58.5C 18.1667,58.5 15.8333,58.5 13.5,58.5C 13.1091,54.6166 13.7758,50.95 15.5,47.5C 17.3971,46.3482 19.0638,46.6815 20.5,48.5 Z"/></g>
<g><path style="opacity:1" fill="#5f618c" d="M 46.5,27.5 C 46.5,27.8333 46.5,28.1667 46.5,28.5C 46.2792,31.0972 45.7792,31.0972 45,28.5C 44.3162,29.7839 44.4829,30.9505 45.5,32C 45.1045,35.7223 43.7712,39.0556 41.5,42C 42.056,42.3826 42.3893,42.8826 42.5,43.5C 40.2834,42.773 37.9501,42.9397 35.5,44C 34.2668,45.6667 32.9335,47.1667 31.5,48.5C 30.8333,45.8333 30.1667,45.8333 29.5,48.5C 27.5522,45.5277 24.8855,43.5277 21.5,42.5C 21.5,42.1667 21.5,41.8333 21.5,41.5C 24.817,42.0819 27.817,43.4153 30.5,45.5C 33.5449,43.4023 36.8782,41.9023 40.5,41C 41.7014,40.0975 42.5348,38.9308 43,37.5C 43.498,34.5184 43.6646,31.5184 43.5,28.5C 43.369,27.7611 43.5357,27.0944 44,26.5C 44.6708,27.2524 45.5041,27.5858 46.5,27.5 Z"/></g>
<g><path style="opacity:1" fill="#535b8a" d="M 42.5,43.5 C 43.1667,43.5 43.8333,43.5 44.5,43.5C 45.1667,44.5 45.8333,45.5 46.5,46.5C 46.5,47.1667 46.5,47.8333 46.5,48.5C 45.5178,47.8592 44.5178,47.1925 43.5,46.5C 42.4822,47.1925 41.4822,47.8592 40.5,48.5C 41.1667,46.8333 41.8333,45.1667 42.5,43.5 Z"/></g>
<g><path style="opacity:1" fill="#6cc7f5" d="M 46.5,48.5 C 47.2071,51.7861 47.5405,55.1194 47.5,58.5C 45.1667,58.5 42.8333,58.5 40.5,58.5C 40.5,55.1667 40.5,51.8333 40.5,48.5C 41.4822,47.8592 42.4822,47.1925 43.5,46.5C 44.5178,47.1925 45.5178,47.8592 46.5,48.5 Z"/></g>
<g><path style="opacity:1" fill="#d3d0dc" d="M 31.5,48.5 C 30.8333,48.5 30.1667,48.5 29.5,48.5C 30.1667,45.8333 30.8333,45.8333 31.5,48.5 Z"/></g>
<g><path style="opacity:1" fill="#5573a3" d="M 20.5,48.5 C 22.0739,50.1016 22.7406,52.1016 22.5,54.5C 27.8333,54.5 33.1667,54.5 38.5,54.5C 38.2594,52.1016 38.9261,50.1016 40.5,48.5C 40.5,51.8333 40.5,55.1667 40.5,58.5C 40.1667,58.5 39.8333,58.5 39.5,58.5C 39.5,57.8333 39.5,57.1667 39.5,56.5C 37.3926,55.5318 35.0593,55.1984 32.5,55.5C 31.1667,55.5 29.8333,55.5 28.5,55.5C 26.1667,55.5 23.8333,55.5 21.5,55.5C 21.7373,56.791 21.404,57.791 20.5,58.5C 20.5,55.1667 20.5,51.8333 20.5,48.5 Z"/></g>
<g><path style="opacity:1" fill="#5575a5" d="M 29.5,48.5 C 30.1667,48.5 30.8333,48.5 31.5,48.5C 30.8333,53.8333 30.1667,53.8333 29.5,48.5 Z"/></g>
<g><path style="opacity:1" fill="#f5cfde" d="M 28.5,55.5 C 29.8333,55.5 31.1667,55.5 32.5,55.5C 33.9053,57.4526 33.2386,58.4526 30.5,58.5C 27.7614,58.4526 27.0947,57.4526 28.5,55.5 Z"/></g>
<g><path style="opacity:1" fill="#f9759d" d="M 22.5,56.5 C 23.9778,56.238 25.3112,56.5713 26.5,57.5C 25.8333,57.8333 25.1667,58.1667 24.5,58.5C 23.2867,58.2528 22.62,57.5862 22.5,56.5 Z"/></g>
<g><path style="opacity:1" fill="#ed7099" d="M 39.5,56.5 C 39.5,57.1667 39.5,57.8333 39.5,58.5C 32.8333,57.8333 32.8333,57.1667 39.5,56.5 Z"/></g>
<g><path style="opacity:0.986" fill="#e1e2e3" d="M 46.5,46.5 C 49.5844,49.6057 51.2511,53.439 51.5,58C 51.5607,59.7106 50.8941,61.044 49.5,62C 38.1667,62.6667 26.8333,62.6667 15.5,62C 14.6195,61.2917 13.9528,60.4584 13.5,59.5C 25.1667,59.5 36.8333,59.5 48.5,59.5C 48.6646,56.4816 48.498,53.4816 48,50.5C 47.7216,49.5842 47.2216,48.9175 46.5,48.5C 46.5,47.8333 46.5,47.1667 46.5,46.5 Z"/></g>
</svg>
